<?xml version="1.0" standalone="no"?><!DOCTYPE svg PUBLIC "-//W3C//DTD SVG 1.1//EN" "http://www.w3.org/Graphics/SVG/1.1/DTD/svg11.dtd"><svg width="200" height="200" viewBox="0 0 200 200" version="1.1" xmlns="http://www.w3.org/2000/svg" xmlns:xlink="http://www.w3.org/1999/xlink"><defs><style type="text/css"><![CDATA[
@font-face { font-family: ifont; src: url("http://at.alicdn.com/t/font_1442373896_4754455.eot?#iefix") format("embedded-opentype"), url("http://at.alicdn.com/t/font_1442373896_4754455.woff") format("woff"), url("http://at.alicdn.com/t/font_1442373896_4754455.ttf") format("truetype"), url("http://at.alicdn.com/t/font_1442373896_4754455.svg#ifont") format("svg"); }

]]></style></defs><g class="transform-group"><g transform="scale(0.1953125, 0.1953125)"><path d="M809.979602 65.031109 214.024491 65.031109c-65.832358 0-119.195729 53.369511-119.195729 119.190613l0 655.556557c0 65.830311 53.363372 119.190613 119.195729 119.190613l595.95511 0c65.827241 0 119.190613-53.361325 119.190613-119.190613L929.170215 184.221722C929.171238 118.40062 875.806843 65.031109 809.979602 65.031109zM333.215104 839.778278l-59.597353 0c-32.911574 0-59.59326-26.680663-59.59326-59.591213 0-32.91976 26.681686-59.600423 59.59326-59.600423l59.597353 0c32.911574 0 59.59326 26.680663 59.59326 59.600423C392.808364 813.097616 366.126678 839.778278 333.215104 839.778278zM512 601.395006 273.617751 601.395006c-32.911574 0-59.59326-26.680663-59.59326-59.591213 0-32.91976 26.681686-59.600423 59.59326-59.600423l238.382249 0c32.915667 0 59.597353 26.680663 59.597353 59.600423C571.597353 574.715367 544.915667 601.395006 512 601.395006zM750.382249 601.395006l-59.59326 0c-32.915667 0-59.597353-26.680663-59.597353-59.591213 0-32.91976 26.681686-59.600423 59.597353-59.600423l59.59326 0c32.915667 0 59.598376 26.680663 59.598376 59.600423C809.979602 574.715367 783.297916 601.395006 750.382249 601.395006zM750.382249 363.012757 273.617751 363.012757c-32.911574 0-59.59326-26.680663-59.59326-59.591213 0-32.91976 26.681686-59.600423 59.59326-59.600423l476.764498 0c32.915667 0 59.598376 26.680663 59.598376 59.600423C809.979602 336.333118 783.297916 363.012757 750.382249 363.012757z" fill="#272636"></path></g></g></svg>