<?xml version="1.0" standalone="no"?><!DOCTYPE svg PUBLIC "-//W3C//DTD SVG 1.1//EN" "http://www.w3.org/Graphics/SVG/1.1/DTD/svg11.dtd"><svg width="200" height="200" viewBox="0 0 200 200" version="1.1" xmlns="http://www.w3.org/2000/svg" xmlns:xlink="http://www.w3.org/1999/xlink"><defs><style type="text/css"><![CDATA[
@font-face { font-family: ifont; src: url("http://at.alicdn.com/t/font_1442373896_4754455.eot?#iefix") format("embedded-opentype"), url("http://at.alicdn.com/t/font_1442373896_4754455.woff") format("woff"), url("http://at.alicdn.com/t/font_1442373896_4754455.ttf") format("truetype"), url("http://at.alicdn.com/t/font_1442373896_4754455.svg#ifont") format("svg"); }

]]></style></defs><g class="transform-group"><g transform="scale(0.1953125, 0.1953125)"><path d="M127.941416 255.902274l0 703.567014 511.684822 0L639.626237 255.902274 127.941416 255.902274zM575.66653 895.509581 191.902146 895.509581 191.902146 319.863005l383.764384 0L575.66653 895.509581zM255.862877 383.823736l255.842922 0 0 63.960731-255.842922 0 0-63.960731ZM255.862877 511.745197l255.842922 0 0 63.960731-255.842922 0 0-63.960731ZM255.862877 639.666658l255.842922 0 0 63.960731-255.842922 0 0-63.960731ZM255.862877 767.588119l255.842922 0 0 63.960731-255.842922 0 0-63.960731ZM255.862877 127.981836 255.862877 255.903298 319.822584 255.903298 319.822584 191.942567 703.586968 191.942567 703.586968 767.588119 639.627261 767.588119 639.627261 831.54885 767.547699 831.54885 767.547699 127.981836ZM383.784338 0.060375 383.784338 127.981836 447.744046 127.981836 447.744046 64.021106 831.508429 64.021106 831.508429 639.666658 767.547699 639.666658 767.547699 703.627389 895.46916 703.627389 895.46916 0.060375Z" fill="#272636"></path></g></g></svg>