<?xml version="1.0" standalone="no"?><!DOCTYPE svg PUBLIC "-//W3C//DTD SVG 1.1//EN" "http://www.w3.org/Graphics/SVG/1.1/DTD/svg11.dtd"><svg width="200" height="200" viewBox="0 0 200 200" version="1.1" xmlns="http://www.w3.org/2000/svg" xmlns:xlink="http://www.w3.org/1999/xlink"><defs><style type="text/css"><![CDATA[
@font-face { font-family: ifont; src: url("http://at.alicdn.com/t/font_1442373896_4754455.eot?#iefix") format("embedded-opentype"), url("http://at.alicdn.com/t/font_1442373896_4754455.woff") format("woff"), url("http://at.alicdn.com/t/font_1442373896_4754455.ttf") format("truetype"), url("http://at.alicdn.com/t/font_1442373896_4754455.svg#ifont") format("svg"); }

]]></style></defs><g class="transform-group"><g transform="scale(0.1953125, 0.1953125)"><path d="M921.764 518.884l-412.854-386.018-412.854 384.884c-8.077 7.53-8.527 20.193-0.979 28.261 7.54 8.063 20.218 8.518 28.289 0.971l385.514-359.379 385.531 360.473c3.868 3.614 8.778 5.4 13.678 5.4 5.335 0 10.673-2.119 14.61-6.336 7.555-8.063 7.139-20.714-0.936-28.256v0zM921.764 518.884zM795.781 526.813c-11.050 0-20.015 8.959-20.015 19.995v306.597h-160.123v-213.284h-213.495v213.284h-160.118v-306.597c0-11.036-8.955-19.995-20.014-19.995-11.065 0-20.018 8.959-20.018 19.995v346.586h240.183v-213.283h133.434v213.283h240.177v-346.586c0.001-11.036-8.965-19.995-20.011-19.995v0zM795.781 526.813zM655.677 240.214h120.089v106.64c0 11.053 8.965 20 20.015 20 11.047 0 20.012-8.947 20.012-20v-146.629h-160.117c-11.053 0-20.018 8.942-20.018 19.995-0.001 11.049 8.965 19.995 20.018 19.995v0zM655.677 240.214z" fill="#272636"></path></g></g></svg>